<svg width="20" height="20" viewBox="0 0 20 20" fill="none" xmlns="http://www.w3.org/2000/svg">
<path fill-rule="evenodd" clip-rule="evenodd" d="M0.266592 0.265849C0.622047 -0.0886164 1.19659 -0.0886164 1.55205 0.265849L10.0002 8.71849L18.4485 0.265849C18.8039 -0.0886164 19.3785 -0.0886164 19.7339 0.265849C20.0894 0.620315 20.0894 1.202 19.7339 1.55647L11.2857 10L19.7339 18.4436C20.0894 18.798 20.0894 19.3797 19.7339 19.7342C19.3785 20.0887 18.8039 20.0887 18.4485 19.7342L10.0002 11.2816L1.55205 19.7342C1.19659 20.0887 0.622047 20.0887 0.266592 19.7342C-0.0888638 19.3797 -0.0888638 18.798 0.266592 18.4436L8.71479 10L0.266592 1.55647C-0.0888638 1.202 -0.0888638 0.620315 0.266592 0.265849Z" fill="#444444"/>
</svg>
